<?xml version="1.0" encoding="UTF-8" standalone="no"?>
<!-- Created with Inkscape (http://www.inkscape.org/) -->

<svg
   width="886.30603mm"
   height="446.7991mm"
   viewBox="0 0 886.30603 446.7991"
   version="1.1"
   id="svg1"
   xml:space="preserve"
   xmlns="http://www.w3.org/2000/svg"
   xmlns:svg="http://www.w3.org/2000/svg"><defs
     id="defs1" /><g
     id="g125"
     transform="translate(898.87886,-75.998494)"><path
       style="opacity:1;fill:none;stroke:#0b2a2b;stroke-width:0.599928;stroke-linecap:butt;stroke-linejoin:bevel;stroke-miterlimit:10;stroke-dasharray:none;stroke-opacity:1;paint-order:fill markers stroke"
       d="m 118.44242,73.602158 c -1.49268,-1.376008 -2.63768,-3.126238 -3.30054,-5.045119 -0.7202,-2.084893 -0.86753,-4.364508 -0.4217,-6.524763 0.44584,-2.160255 1.48364,-4.195281 2.97041,-5.824695 1.48676,-1.629415 3.41847,-2.848791 5.52896,-3.490125 2.11048,-0.641334 4.39403,-0.702884 6.536,-0.17617 2.14197,0.526715 4.13655,1.640263 5.70894,3.187221 1.57238,1.546959 2.71829,3.523126 3.27985,5.656228 0.56156,2.133101 0.53724,4.417343 -0.0696,6.538005 -0.60685,2.120663 -1.79458,4.071985 -3.39954,5.585116"
       id="path110"
       transform="matrix(1.3935013,0,0,1.3935013,-124.60964,-25.852468)" /><text
       xml:space="preserve"
       style="font-size:2.72678px;line-height:1.9;font-family:Arial;-inkscape-font-specification:Arial;text-align:center;text-decoration-color:#000000;letter-spacing:0.308808px;word-spacing:-0.51622px;opacity:1;fill:#0b2a2b;fill-opacity:1;stroke:#0b2a2b;stroke-width:0.0386474;stroke-linecap:butt;stroke-linejoin:bevel;stroke-miterlimit:10;stroke-dasharray:none;stroke-opacity:1;paint-order:fill markers stroke"
       x="32.886383"
       y="96.062607"
       id="text110"
       transform="scale(1.0690534,0.93540696)"><tspan
         id="tspan110"
         style="font-style:normal;font-variant:normal;font-weight:normal;font-stretch:normal;font-family:Kalypsa;-inkscape-font-specification:Kalypsa;letter-spacing:0.308808px;word-spacing:-0.51622px;fill:#0b2a2b;fill-opacity:1;stroke:#0b2a2b;stroke-width:0.0386474;stroke-dasharray:none;stroke-opacity:1"
         x="32.886383"
         y="96.062607">POWER YOGA STUDIO</tspan></text><text
       xml:space="preserve"
       style="font-size:9.49482px;line-height:1.9;font-family:Arial;-inkscape-font-specification:Arial;text-align:center;text-decoration-color:#000000;letter-spacing:1.07529px;opacity:1;fill:#0b2a2b;fill-opacity:1;stroke:#0b2a2b;stroke-width:0;stroke-linecap:butt;stroke-linejoin:bevel;stroke-miterlimit:10;stroke-dasharray:none;stroke-opacity:1;paint-order:fill markers stroke"
       x="35.975506"
       y="84.009987"
       id="text111"
       transform="scale(0.96571239,1.035505)"><tspan
         id="tspan111"
         style="font-style:normal;font-variant:normal;font-weight:normal;font-stretch:normal;font-family:'Blink Twice';-inkscape-font-specification:'Blink Twice';letter-spacing:1.07529px;fill:#0b2a2b;fill-opacity:1;stroke:#0b2a2b;stroke-width:0;stroke-dasharray:none;stroke-opacity:1"
         x="35.975506"
         y="84.009987">USNA</tspan></text><path
       style="opacity:1;fill:none;stroke:#0b2a2b;stroke-width:0.6;stroke-linecap:round;stroke-linejoin:round;stroke-miterlimit:10;stroke-dasharray:none;stroke-opacity:1;paint-order:fill markers stroke"
       d="m 128.82785,80.150662 c 0.60195,-0.835867 1.3794,-1.544722 2.26716,-2.067115 1.48155,-0.871801 3.27078,-1.208033 4.96774,-0.933535"
       id="path111"
       transform="matrix(1.3935013,0,0,1.3935013,-124.60964,-37.02223)" /><path
       style="opacity:1;fill:none;stroke:#0b2a2b;stroke-width:0.6;stroke-linecap:round;stroke-linejoin:round;stroke-miterlimit:10;stroke-dasharray:none;stroke-opacity:1;paint-order:fill markers stroke"
       d="m 129.92809,80.71745 c 0.26126,0.192728 0.55591,0.340056 0.86685,0.433427 0.71676,0.215236 1.50227,0.13603 2.20048,-0.133363 1.05031,-0.405242 1.91756,-1.233412 2.43386,-2.233816 0.27877,-0.54015 0.46034,-1.130276 0.53345,-1.733706"
       id="path112"
       transform="matrix(1.3935013,0,0,1.3935013,-124.44703,-36.766699)" /><path
       style="opacity:1;fill:#0b2a2b;fill-opacity:1;stroke:#0b2a2b;stroke-width:0.6;stroke-linecap:round;stroke-linejoin:round;stroke-miterlimit:10;stroke-dasharray:none;stroke-opacity:1;paint-order:fill markers stroke"
       d="m 134.2957,73.982661 c -0.58893,-0.137081 -1.20679,-0.148523 -1.80039,-0.03334 -0.20933,0.04062 -0.41669,0.09716 -0.61023,0.186662 -0.19354,0.0895 -0.37343,0.213047 -0.51236,0.374811 -0.13894,0.161764 -0.23536,0.363193 -0.2556,0.575467 -0.0202,0.212274 0.0396,0.434503 0.17793,0.596766 0.14344,0.168229 0.36107,0.262289 0.58088,0.285898 0.21981,0.02361 0.44231,-0.01801 0.65272,-0.08585 0.43002,-0.138654 0.82347,-0.389086 1.13114,-0.719971 0.30766,-0.330884 0.52885,-0.741484 0.63591,-1.180439 z"
       id="path113"
       transform="matrix(1.3935013,0,0,1.3935013,-124.60964,-37.02223)" /><path
       style="opacity:1;fill:none;stroke:#0b2a2b;stroke-width:0.6;stroke-linecap:round;stroke-linejoin:round;stroke-miterlimit:10;stroke-dasharray:none;stroke-opacity:1;paint-order:fill markers stroke"
       d="m 126.79408,64.047179 c 0.51344,0.696565 1.0391,1.384125 1.57665,2.062256 0.56176,0.708676 1.13738,1.408015 1.76784,2.056333 0.26839,0.275995 0.54709,0.543157 0.7903,0.841589 0.2432,0.298432 0.45184,0.632047 0.55814,1.00206 0.1184,0.412135 0.10449,0.855673 4.5e-4,1.271663 -0.10405,0.415991 -0.29546,0.806243 -0.52582,1.167916 -0.61979,0.973093 -1.51309,1.740657 -2.20047,2.667243 -0.42754,0.576326 -0.77838,1.226572 -0.90019,1.933753 -0.18195,1.056365 0.19253,2.192742 0.96687,2.933967"
       id="path114"
       transform="matrix(1.3935013,0,0,1.3935013,-124.60964,-37.02223)" /><path
       style="opacity:1;fill:none;stroke:#0b2a2b;stroke-width:0.6;stroke-linecap:round;stroke-linejoin:round;stroke-miterlimit:10;stroke-dasharray:none;stroke-opacity:1;paint-order:fill markers stroke"
       d="m 128.82785,80.150662 c 0.60195,-0.835867 1.3794,-1.544722 2.26716,-2.067115 1.48155,-0.871801 3.27078,-1.208033 4.96774,-0.933535"
       id="path115"
       transform="matrix(1.3935013,0,0,1.3935013,-124.60964,-37.02223)" /><path
       style="opacity:1;fill:none;stroke:#0b2a2b;stroke-width:0.6;stroke-linecap:round;stroke-linejoin:round;stroke-miterlimit:10;stroke-dasharray:none;stroke-opacity:1;paint-order:fill markers stroke"
       d="m 128.82785,80.150662 c 0.60195,-0.835867 1.3794,-1.544722 2.26716,-2.067115 1.48155,-0.871801 3.27078,-1.208033 4.96774,-0.933535"
       id="path116"
       transform="matrix(-1.3935013,0,0,1.3935013,228.63928,-36.923673)" /><path
       style="opacity:1;fill:none;stroke:#0b2a2b;stroke-width:0.6;stroke-linecap:round;stroke-linejoin:round;stroke-miterlimit:10;stroke-dasharray:none;stroke-opacity:1;paint-order:fill markers stroke"
       d="m 129.92809,80.71745 c 0.26126,0.192728 0.55591,0.340056 0.86685,0.433427 0.71676,0.215236 1.50227,0.13603 2.20048,-0.133363 1.05031,-0.405242 1.91756,-1.233412 2.43386,-2.233816 0.27877,-0.54015 0.46034,-1.130276 0.53345,-1.733706"
       id="path117"
       transform="matrix(-1.3935013,0,0,1.3935013,228.4999,-36.691373)" /><path
       style="opacity:1;fill:#0b2a2b;fill-opacity:1;stroke:#0b2a2b;stroke-width:0.6;stroke-linecap:round;stroke-linejoin:round;stroke-miterlimit:10;stroke-dasharray:none;stroke-opacity:1;paint-order:fill markers stroke"
       d="m 134.2957,73.982661 c -0.58893,-0.137081 -1.20679,-0.148523 -1.80039,-0.03334 -0.20933,0.04062 -0.41669,0.09716 -0.61023,0.186662 -0.19354,0.0895 -0.37343,0.213047 -0.51236,0.374811 -0.13894,0.161764 -0.23536,0.363193 -0.2556,0.575467 -0.0202,0.212274 0.0396,0.434503 0.17793,0.596766 0.14344,0.168229 0.36107,0.262289 0.58088,0.285898 0.21981,0.02361 0.44231,-0.01801 0.65272,-0.08585 0.43002,-0.138654 0.82347,-0.389086 1.13114,-0.719971 0.30766,-0.330884 0.52885,-0.741484 0.63591,-1.180439 z"
       id="path118"
       transform="matrix(-1.3935013,0,0,1.3935013,228.63928,-36.923673)" /><path
       style="opacity:1;fill:none;stroke:#0b2a2b;stroke-width:0.6;stroke-linecap:round;stroke-linejoin:round;stroke-miterlimit:10;stroke-dasharray:none;stroke-opacity:1;paint-order:fill markers stroke"
       d="m 126.79408,64.047179 c 0.51344,0.696565 1.0391,1.384125 1.57665,2.062256 0.56176,0.708676 1.13738,1.408015 1.76784,2.056333 0.26839,0.275995 0.54709,0.543157 0.7903,0.841589 0.2432,0.298432 0.45184,0.632047 0.55814,1.00206 0.1184,0.412135 0.10449,0.855673 4.5e-4,1.271663 -0.10405,0.415991 -0.29546,0.806243 -0.52582,1.167916 -0.61979,0.973093 -1.51309,1.740657 -2.20047,2.667243 -0.42754,0.576326 -0.77838,1.226572 -0.90019,1.933753 -0.18195,1.056365 0.19253,2.192742 0.96687,2.933967"
       id="path119"
       transform="matrix(-1.3935013,0,0,1.3935013,228.63928,-36.923673)" /><path
       style="opacity:1;fill:none;stroke:#0b2a2b;stroke-width:0.6;stroke-linecap:round;stroke-linejoin:round;stroke-miterlimit:10;stroke-dasharray:none;stroke-opacity:1;paint-order:fill markers stroke"
       d="m 128.82785,80.150662 c 0.60195,-0.835867 1.3794,-1.544722 2.26716,-2.067115 1.48155,-0.871801 3.27078,-1.208033 4.96774,-0.933535"
       id="path120"
       transform="matrix(-1.3935013,0,0,1.3935013,228.63928,-36.923673)" /><path
       style="opacity:1;fill:#0b2a2b;fill-opacity:1;stroke:#0b2a2b;stroke-width:0.6;stroke-linecap:round;stroke-linejoin:round;stroke-miterlimit:10;stroke-dasharray:none;stroke-opacity:1;paint-order:fill markers stroke"
       d="m 134.2957,73.982661 c -0.58893,-0.137081 -1.20679,-0.148523 -1.80039,-0.03334 -0.20933,0.04062 -0.41669,0.09716 -0.61023,0.186662 -0.19354,0.0895 -0.37343,0.213047 -0.51236,0.374811 -0.13894,0.161764 -0.23536,0.363193 -0.2556,0.575467 -0.0202,0.212274 0.0396,0.434503 0.17793,0.596766 0.14344,0.168229 0.36107,0.262289 0.58088,0.285898 0.21981,0.02361 0.44231,-0.01801 0.65272,-0.08585 0.43002,-0.138654 0.82347,-0.389086 1.13114,-0.719971 0.30766,-0.330884 0.52885,-0.741484 0.63591,-1.180439 z"
       id="path121"
       transform="matrix(0.58542009,-1.2645667,1.2645667,0.58542009,-120.16784,184.0422)" /><path
       style="opacity:1;fill:none;stroke:#0b2a2b;stroke-width:0.600001;stroke-linecap:round;stroke-linejoin:round;stroke-miterlimit:10;stroke-dasharray:none;stroke-opacity:1;paint-order:fill markers stroke"
       d="m 124.4777,80.061796 c 0.2036,0.441273 0.54612,0.81721 0.96659,1.06089 0.35457,0.205487 0.76254,0.317008 1.17228,0.324015 0.40975,0.007 0.82044,-0.09016 1.18525,-0.276865 0.50398,-0.257938 0.91762,-0.688451 1.1552,-1.202343"
       id="path122"
       transform="matrix(1.3935013,0,0,1.3935013,-124.60964,-37.02223)" /><path
       style="opacity:1;fill:none;stroke:#0b2a2b;stroke-width:0.600001;stroke-linecap:butt;stroke-linejoin:bevel;stroke-miterlimit:10;stroke-dasharray:none;stroke-opacity:1;paint-order:fill markers stroke"
       d="m 126.74407,62.655211 0.0167,1.667029"
       id="path125"
       transform="matrix(1.3935013,0,0,1.3935013,-124.60964,-37.02223)" /><path
       style="opacity:1;fill:none;stroke:#0b2a2b;stroke-width:0.600001;stroke-linecap:round;stroke-linejoin:round;stroke-miterlimit:10;stroke-dasharray:none;stroke-opacity:1;paint-order:fill markers stroke"
       d="m 123.06318,68.69849 c -0.21608,0.538029 -0.21608,1.159395 0,1.697424 0.24225,0.603179 0.73285,1.076614 1.27307,1.438095 0.84342,0.56436 1.82956,0.898634 2.64044,1.508821 0.74826,0.563063 1.32268,1.353935 1.6267,2.239656"
       id="path123"
       transform="matrix(-1.3935013,0,0,1.3935013,228.87696,-37.02223)" /><path
       style="opacity:1;fill:none;stroke:#0b2a2b;stroke-width:0.600001;stroke-linecap:round;stroke-linejoin:round;stroke-miterlimit:10;stroke-dasharray:none;stroke-opacity:1;paint-order:fill markers stroke"
       d="m 123.06318,68.69849 c -0.21608,0.538029 -0.21608,1.159395 0,1.697424 0.24225,0.603179 0.73285,1.076614 1.27307,1.438095 0.84342,0.56436 1.82956,0.898634 2.64044,1.508821 0.74826,0.563063 1.32268,1.353935 1.6267,2.239656"
       id="path124"
       transform="matrix(1.3935013,0,0,1.3935013,-124.83908,-37.02223)" /><text
       xml:space="preserve"
       style="font-size:4.38803px;line-height:1.9;font-family:Arial;-inkscape-font-specification:Arial;text-align:center;text-decoration-color:#000000;letter-spacing:0.496944px;word-spacing:0px;opacity:1;fill:#0b2a2b;fill-opacity:1;stroke:#0b2a2b;stroke-width:0.0621925;stroke-linecap:butt;stroke-linejoin:bevel;stroke-miterlimit:10;stroke-dasharray:none;stroke-opacity:1;paint-order:fill markers stroke"
       x="32.963341"
       y="100.44127"
       id="text175"
       transform="scale(1.0690534,0.93540696)"><tspan
         id="tspan175"
         style="font-style:normal;font-variant:normal;font-weight:normal;font-stretch:normal;font-family:Kalypsa;-inkscape-font-specification:Kalypsa;letter-spacing:0.496944px;word-spacing:0px;fill:#0b2a2b;fill-opacity:1;stroke:#0b2a2b;stroke-width:0.0621925;stroke-dasharray:none;stroke-opacity:1"
         x="32.963341"
         y="100.44127">LAS LOMITAS</tspan></text><text
       xml:space="preserve"
       style="font-size:18.5315px;line-height:1.9;font-family:Arial;-inkscape-font-specification:Arial;text-align:center;text-decoration-color:#000000;letter-spacing:2.09869px;word-spacing:-3.50828px;opacity:1;fill:#0b2a2b;fill-opacity:1;stroke:#0b2a2b;stroke-width:0.26265;stroke-linecap:butt;stroke-linejoin:bevel;stroke-miterlimit:10;stroke-dasharray:none;stroke-opacity:1;paint-order:fill markers stroke"
       x="-204.401"
       y="48.171783"
       id="text176"
       transform="scale(1.0690534,0.93540696)"><tspan
         id="tspan176"
         style="font-style:normal;font-variant:normal;font-weight:normal;font-stretch:normal;font-family:Kalypsa;-inkscape-font-specification:Kalypsa;letter-spacing:2.09869px;word-spacing:-3.50828px;fill:#0b2a2b;fill-opacity:1;stroke:#0b2a2b;stroke-width:0.26265;stroke-dasharray:none;stroke-opacity:1"
         x="-204.401"
         y="48.171783">POWER YOGA STUDIO</tspan></text><text
       xml:space="preserve"
       style="font-size:50.6648px;line-height:1.9;font-family:Arial;-inkscape-font-specification:Arial;text-align:center;text-decoration-color:#000000;letter-spacing:5.73781px;opacity:1;fill:#0b2a2b;fill-opacity:1;stroke:#0b2a2b;stroke-width:0;stroke-linecap:butt;stroke-linejoin:bevel;stroke-miterlimit:10;stroke-dasharray:none;stroke-opacity:1;paint-order:fill markers stroke"
       x="-228.38286"
       y="26.25079"
       id="text177"
       transform="scale(0.96571239,1.035505)"><tspan
         id="tspan177"
         style="font-style:normal;font-variant:normal;font-weight:normal;font-stretch:normal;font-family:'Blink Twice';-inkscape-font-specification:'Blink Twice';letter-spacing:5.73781px;fill:#0b2a2b;fill-opacity:1;stroke:#0b2a2b;stroke-width:0;stroke-dasharray:none;stroke-opacity:1"
         x="-228.38286"
         y="26.25079">USHNA</tspan></text><text
       xml:space="preserve"
       style="font-size:29.8213px;line-height:1.9;font-family:Arial;-inkscape-font-specification:Arial;text-align:center;text-decoration-color:#000000;letter-spacing:3.37727px;word-spacing:0px;opacity:1;fill:#0b2a2b;fill-opacity:1;stroke:#0b2a2b;stroke-width:0.422665;stroke-linecap:butt;stroke-linejoin:bevel;stroke-miterlimit:10;stroke-dasharray:none;stroke-opacity:1;paint-order:fill markers stroke"
       x="-203.87801"
       y="77.929527"
       id="text178"
       transform="scale(1.0690534,0.93540696)"><tspan
         id="tspan178"
         style="font-style:normal;font-variant:normal;font-weight:normal;font-stretch:normal;font-family:Kalypsa;-inkscape-font-specification:Kalypsa;letter-spacing:3.37727px;word-spacing:0px;fill:#0b2a2b;fill-opacity:1;stroke:#0b2a2b;stroke-width:0.422665;stroke-dasharray:none;stroke-opacity:1"
         x="-203.87801"
         y="77.929527">LAS LOMITAS</tspan></text><rect
       style="fill:#ebdbc2;fill-opacity:1;stroke:#ebdbc2;stroke-width:1.23518;stroke-linecap:round;stroke-linejoin:bevel;stroke-miterlimit:10;stroke-dasharray:none;stroke-opacity:1;paint-order:fill markers stroke"
       id="rect178"
       width="885.07086"
       height="445.56393"
       x="-898.26129"
       y="76.616081" /><g
       id="g257"
       transform="translate(-394.752,198.4429)"><path
         style="display:inline;fill:none;fill-opacity:1;stroke:#0a2729;stroke-width:2;stroke-linecap:round;stroke-linejoin:bevel;stroke-miterlimit:10;stroke-dasharray:none;stroke-opacity:1;paint-order:fill markers stroke"
         d="m -18.596113,-115.11106 c -17.529185,23.19523 -40.797807,42.019283 -67.142519,54.317542 -18.009818,8.407357 -37.952408,13.833532 -57.712388,11.69336 -23.48124,-2.543216 -44.3663,-15.329682 -65.78994,-25.272746 -22.99922,-10.67432 -47.71348,-18.350656 -73.04915,-19.355042 -25.33568,-1.004387 -51.384,5.025512 -72.05316,19.711945 -15.18822,10.79196 -26.89813,25.707825 -37.87484,40.763059 -13.96769,19.157539 -27.25651,39.1657897 -35.26841,61.479843 -8.36421,23.29528 -10.69323,48.627585 -7.54409,73.177799 2.93569,22.88614 10.70953,45.36359 24.14114,64.12488 12.66666,17.69281 30.05639,31.68454 49.14881,42.12292 19.09241,10.43838 39.89285,17.44831 60.99509,22.75636 39.4022,9.91122 82.02486,13.81798 119.95124,-0.75441 28.34647,-10.89152 51.85066,-31.18905 76.94985,-48.28226 25.715083,-17.51265 53.432185,-31.83256 80.721906,-46.77343 31.6609819,-17.33409 63.258479,-35.734997 98.073341,-45.264625 38.688993,-10.590068 80.612983,-9.566666 118.442423,3.772051 10.64466,3.753323 21.05479,8.512574 29.9864,15.413474 8.93161,6.9009 16.34828,16.08876 19.80468,26.8335 3.00613,9.34501 2.89851,19.58327 0.21651,29.02641 -2.68199,9.44314 -7.87425,18.09418 -14.55031,25.29114 -12.48982,13.46434 -29.78965,21.64618 -47.52785,26.40435 -21.8808,5.8694 -45.34005,6.90843 -67.14252,0.75443 -18.800502,-5.30666 -35.781254,-15.71141 -54.317538,-21.87791 -25.813759,-8.58751 -53.8304296,-8.64277 -80.721906,-4.52646 -29.993372,4.59112 -59.357206,14.35462 -85.248366,30.1764 -18.49113,11.2997 -35.1195,25.63624 -49.03667,42.247 -8.97477,10.7118 -16.82702,22.36351 -23.38672,34.70286"
         id="path190" /><path
         style="display:inline;fill:none;fill-opacity:1;stroke:#0a2729;stroke-width:2;stroke-linecap:round;stroke-linejoin:bevel;stroke-miterlimit:10;stroke-dasharray:none;stroke-opacity:1;paint-order:fill markers stroke"
         d="m -18.596113,-115.11106 c -17.529185,23.19523 -40.797807,42.019283 -67.142519,54.317542 -18.009818,8.407357 -37.952408,13.833532 -57.712388,11.69336 -23.48124,-2.543216 -44.3663,-15.329682 -65.78994,-25.272746 -22.99922,-10.67432 -47.71348,-18.350656 -73.04915,-19.355042 -25.33568,-1.004387 -51.384,5.025512 -72.05316,19.711945 -15.18822,10.79196 -26.89813,25.707825 -37.87484,40.763059 -13.96769,19.157539 -27.25651,39.1657897 -35.26841,61.479843 -8.36421,23.29528 -10.69323,48.627585 -7.54409,73.177799 2.93569,22.88614 10.70953,45.36359 24.14114,64.12488 12.66666,17.69281 30.05639,31.68454 49.14881,42.12292 19.09241,10.43838 39.89285,17.44831 60.99509,22.75636 39.4022,9.91122 82.02486,13.81798 119.95124,-0.75441 28.34647,-10.89152 51.85066,-31.18905 76.94985,-48.28226 25.715083,-17.51265 53.432185,-31.83256 80.721906,-46.77343 31.6609819,-17.33409 63.258479,-35.734997 98.073341,-45.264625 38.688993,-10.590068 80.612983,-9.566666 118.442423,3.772051 10.64466,3.753323 21.05479,8.512574 29.9864,15.413474 8.93161,6.9009 16.34828,16.08876 19.80468,26.8335 3.00613,9.34501 2.89851,19.58327 0.21651,29.02641 -2.68199,9.44314 -7.87425,18.09418 -14.55031,25.29114 -12.48982,13.46434 -29.78965,21.64618 -47.52785,26.40435 -21.8808,5.8694 -45.34005,6.90843 -67.14252,0.75443 -18.800502,-5.30666 -35.781254,-15.71141 -54.317538,-21.87791 -25.813759,-8.58751 -53.8304296,-8.64277 -80.721906,-4.52646 -29.993372,4.59112 -59.357206,14.35462 -85.248366,30.1764 -18.49113,11.2997 -35.1195,25.63624 -49.03667,42.247 -8.97477,10.7118 -16.82702,22.36351 -23.38672,34.70286"
         id="path192"
         transform="translate(2.263231,6.0352826)" /><path
         style="display:inline;fill:none;fill-opacity:1;stroke:#0a2729;stroke-width:2;stroke-linecap:round;stroke-linejoin:bevel;stroke-miterlimit:10;stroke-dasharray:none;stroke-opacity:1;paint-order:fill markers stroke"
         d="m -18.596113,-115.11106 c -17.529185,23.19523 -40.797807,42.019283 -67.142519,54.317542 -18.009818,8.407357 -37.952408,13.833532 -57.712388,11.69336 -23.48124,-2.543216 -44.3663,-15.329682 -65.78994,-25.272746 -22.99922,-10.67432 -47.71348,-18.350656 -73.04915,-19.355042 -25.33568,-1.004387 -51.384,5.025512 -72.05316,19.711945 -15.18822,10.79196 -26.89813,25.707825 -37.87484,40.763059 -13.96769,19.157539 -27.25651,39.1657897 -35.26841,61.479843 -8.36421,23.29528 -10.69323,48.627585 -7.54409,73.177799 2.93569,22.88614 10.70953,45.36359 24.14114,64.12488 12.66666,17.69281 30.05639,31.68454 49.14881,42.12292 19.09241,10.43838 39.89285,17.44831 60.99509,22.75636 39.4022,9.91122 82.02486,13.81798 119.95124,-0.75441 28.34647,-10.89152 51.85066,-31.18905 76.94985,-48.28226 25.715083,-17.51265 53.432185,-31.83256 80.721906,-46.77343 31.6609819,-17.33409 63.258479,-35.734997 98.073341,-45.264625 38.688993,-10.590068 80.612983,-9.566666 118.442423,3.772051 10.64466,3.753323 21.05479,8.512574 29.9864,15.413474 8.93161,6.9009 16.34828,16.08876 19.80468,26.8335 3.00613,9.34501 2.89851,19.58327 0.21651,29.02641 -2.68199,9.44314 -7.87425,18.09418 -14.55031,25.29114 -12.48982,13.46434 -29.78965,21.64618 -47.52785,26.40435 -21.8808,5.8694 -45.34005,6.90843 -67.14252,0.75443 -18.800502,-5.30666 -35.781254,-15.71141 -54.317538,-21.87791 -25.813759,-8.58751 -53.8304296,-8.64277 -80.721906,-4.52646 -29.993372,4.59112 -59.357206,14.35462 -85.248366,30.1764 -18.49113,11.2997 -35.1195,25.63624 -49.03667,42.247 -8.97477,10.7118 -16.82702,22.36351 -23.38672,34.70286"
         id="path196"
         transform="translate(9.0529239,7.5441033)" /><path
         style="display:inline;fill:none;fill-opacity:1;stroke:#0a2729;stroke-width:1.5;stroke-linecap:round;stroke-linejoin:bevel;stroke-miterlimit:10;stroke-dasharray:none;stroke-opacity:1;paint-order:fill markers stroke"
         d="m -18.596113,-115.11106 c -17.529185,23.19523 -40.797807,42.019283 -67.142519,54.317542 -18.009818,8.407357 -37.952408,13.833532 -57.712388,11.69336 -23.48124,-2.543216 -44.3663,-15.329682 -65.78994,-25.272746 -22.99922,-10.67432 -47.71348,-18.350656 -73.04915,-19.355042 -25.33568,-1.004387 -51.384,5.025512 -72.05316,19.711945 -15.18822,10.79196 -26.89813,25.707825 -37.87484,40.763059 -13.96769,19.157539 -27.25651,39.1657897 -35.26841,61.479843 -8.36421,23.29528 -10.69323,48.627585 -7.54409,73.177799 2.93569,22.88614 10.70953,45.36359 24.14114,64.12488 12.66666,17.69281 30.05639,31.68454 49.14881,42.12292 19.09241,10.43838 39.89285,17.44831 60.99509,22.75636 39.4022,9.91122 82.02486,13.81798 119.95124,-0.75441 28.34647,-10.89152 51.85066,-31.18905 76.94985,-48.28226 25.715083,-17.51265 53.432185,-31.83256 80.721906,-46.77343 31.6609819,-17.33409 63.258479,-35.734997 98.073341,-45.264625 38.688993,-10.590068 80.612983,-9.566666 118.442423,3.772051 10.64466,3.753323 21.05479,8.512574 29.9864,15.413474 8.93161,6.9009 16.34828,16.08876 19.80468,26.8335 3.00613,9.34501 2.89851,19.58327 0.21651,29.02641 -2.68199,9.44314 -7.87425,18.09418 -14.55031,25.29114 -12.48982,13.46434 -29.78965,21.64618 -47.52785,26.40435 -21.8808,5.8694 -45.34005,6.90843 -67.14252,0.75443 -18.800502,-5.30666 -35.781254,-15.71141 -54.317538,-21.87791 -25.813759,-8.58751 -53.8304296,-8.64277 -80.721906,-4.52646 -29.993372,4.59112 -59.357206,14.35462 -85.248366,30.1764 -18.49113,11.2997 -35.1195,25.63624 -49.03667,42.247 -8.97477,10.7118 -16.82702,22.36351 -23.38672,34.70286"
         id="path200"
         transform="translate(14.333796,12.070565)" /><path
         style="display:inline;fill:none;fill-opacity:1;stroke:#0a2729;stroke-width:1.5;stroke-linecap:round;stroke-linejoin:bevel;stroke-miterlimit:10;stroke-dasharray:none;stroke-opacity:1;paint-order:fill markers stroke"
         d="m -18.596113,-115.11106 c -17.529185,23.19523 -40.797807,42.019283 -67.142519,54.317542 -18.009818,8.407357 -37.952408,13.833532 -57.712388,11.69336 -23.48124,-2.543216 -44.3663,-15.329682 -65.78994,-25.272746 -22.99922,-10.67432 -47.71348,-18.350656 -73.04915,-19.355042 -25.33568,-1.004387 -51.384,5.025512 -72.05316,19.711945 -15.18822,10.79196 -26.89813,25.707825 -37.87484,40.763059 -13.96769,19.157539 -27.25651,39.1657897 -35.26841,61.479843 -8.36421,23.29528 -10.69323,48.627585 -7.54409,73.177799 2.93569,22.88614 10.70953,45.36359 24.14114,64.12488 12.66666,17.69281 30.05639,31.68454 49.14881,42.12292 19.09241,10.43838 39.89285,17.44831 60.99509,22.75636 39.4022,9.91122 82.02486,13.81798 119.95124,-0.75441 28.34647,-10.89152 51.85066,-31.18905 76.94985,-48.28226 25.715083,-17.51265 53.432185,-31.83256 80.721906,-46.77343 31.6609819,-17.33409 63.258479,-35.734997 98.073341,-45.264625 38.688993,-10.590068 80.612983,-9.566666 118.442423,3.772051 10.64466,3.753323 21.05479,8.512574 29.9864,15.413474 8.93161,6.9009 16.34828,16.08876 19.80468,26.8335 3.00613,9.34501 2.89851,19.58327 0.21651,29.02641 -2.68199,9.44314 -7.87425,18.09418 -14.55031,25.29114 -12.48982,13.46434 -29.78965,21.64618 -47.52785,26.40435 -21.8808,5.8694 -45.34005,6.90843 -67.14252,0.75443 -18.800502,-5.30666 -35.781254,-15.71141 -54.317538,-21.87791 -25.813759,-8.58751 -53.8304296,-8.64277 -80.721906,-4.52646 -29.993372,4.59112 -59.357206,14.35462 -85.248366,30.1764 -18.49113,11.2997 -35.1195,25.63624 -49.03667,42.247 -8.97477,10.7118 -16.82702,22.36351 -23.38672,34.70286"
         id="path204"
         transform="translate(21.877899,14.333796)" /><path
         style="display:inline;fill:none;fill-opacity:1;stroke:#0a2729;stroke-width:1.5;stroke-linecap:round;stroke-linejoin:bevel;stroke-miterlimit:10;stroke-dasharray:none;stroke-opacity:1;paint-order:fill markers stroke"
         d="m -18.596113,-115.11106 c -17.529185,23.19523 -40.797807,42.019283 -67.142519,54.317542 -18.009818,8.407357 -37.952408,13.833532 -57.712388,11.69336 -23.48124,-2.543216 -44.3663,-15.329682 -65.78994,-25.272746 -22.99922,-10.67432 -47.71348,-18.350656 -73.04915,-19.355042 -25.33568,-1.004387 -51.384,5.025512 -72.05316,19.711945 -15.18822,10.79196 -26.89813,25.707825 -37.87484,40.763059 -13.96769,19.157539 -27.25651,39.1657897 -35.26841,61.479843 -8.36421,23.29528 -10.69323,48.627585 -7.54409,73.177799 2.93569,22.88614 10.70953,45.36359 24.14114,64.12488 12.66666,17.69281 30.05639,31.68454 49.14881,42.12292 19.09241,10.43838 39.89285,17.44831 60.99509,22.75636 39.4022,9.91122 82.02486,13.81798 119.95124,-0.75441 28.34647,-10.89152 51.85066,-31.18905 76.94985,-48.28226 25.715083,-17.51265 53.432185,-31.83256 80.721906,-46.77343 31.6609819,-17.33409 63.258479,-35.734997 98.073341,-45.264625 38.688993,-10.590068 80.612983,-9.566666 118.442423,3.772051 10.64466,3.753323 21.05479,8.512574 29.9864,15.413474 8.93161,6.9009 16.34828,16.08876 19.80468,26.8335 3.00613,9.34501 2.89851,19.58327 0.21651,29.02641 -2.68199,9.44314 -7.87425,18.09418 -14.55031,25.29114 -12.48982,13.46434 -29.78965,21.64618 -47.52785,26.40435 -21.8808,5.8694 -45.34005,6.90843 -67.14252,0.75443 -18.800502,-5.30666 -35.781254,-15.71141 -54.317538,-21.87791 -25.813759,-8.58751 -53.8304296,-8.64277 -80.721906,-4.52646 -29.993372,4.59112 -59.357206,14.35462 -85.248366,30.1764 -18.49113,11.2997 -35.1195,25.63624 -49.03667,42.247 -8.97477,10.7118 -16.82702,22.36351 -23.38672,34.70286"
         id="path208"
         transform="translate(27.913182,18.860258)" /><path
         style="display:inline;fill:none;fill-opacity:1;stroke:#0a2729;stroke-width:0.836001;stroke-linecap:round;stroke-linejoin:bevel;stroke-miterlimit:10;stroke-dasharray:none;stroke-opacity:1;paint-order:fill markers stroke"
         d="m -18.596113,-115.11106 c -17.529185,23.19523 -40.797807,42.019283 -67.142519,54.317542 -18.009818,8.407357 -37.952408,13.833532 -57.712388,11.69336 -23.48124,-2.543216 -44.3663,-15.329682 -65.78994,-25.272746 -22.99922,-10.67432 -47.71348,-18.350656 -73.04915,-19.355042 -25.33568,-1.004387 -51.384,5.025512 -72.05316,19.711945 -15.18822,10.79196 -26.89813,25.707825 -37.87484,40.763059 -13.96769,19.157539 -27.25651,39.1657897 -35.26841,61.479843 -8.36421,23.29528 -10.69323,48.627585 -7.54409,73.177799 2.93569,22.88614 10.70953,45.36359 24.14114,64.12488 12.66666,17.69281 30.05639,31.68454 49.14881,42.12292 19.09241,10.43838 39.89285,17.44831 60.99509,22.75636 39.4022,9.91122 82.02486,13.81798 119.95124,-0.75441 28.34647,-10.89152 51.85066,-31.18905 76.94985,-48.28226 25.715083,-17.51265 53.432185,-31.83256 80.721906,-46.77343 31.6609819,-17.33409 63.258479,-35.734997 98.073341,-45.264625 38.688993,-10.590068 80.612983,-9.566666 118.442423,3.772051 10.64466,3.753323 21.05479,8.512574 29.9864,15.413474 8.93161,6.9009 16.34828,16.08876 19.80468,26.8335 3.00613,9.34501 2.89851,19.58327 0.21651,29.02641 -2.68199,9.44314 -7.87425,18.09418 -14.55031,25.29114 -12.48982,13.46434 -29.78965,21.64618 -47.52785,26.40435 -21.8808,5.8694 -45.34005,6.90843 -67.14252,0.75443 -18.800502,-5.30666 -35.781254,-15.71141 -54.317538,-21.87791 -25.813759,-8.58751 -53.8304296,-8.64277 -80.721906,-4.52646 -29.993372,4.59112 -59.357206,14.35462 -85.248366,30.1764 -18.49113,11.2997 -35.1195,25.63624 -49.03667,42.247 -8.97477,10.7118 -16.82702,22.36351 -23.38672,34.70286"
         id="path212"
         transform="translate(35.32152,19.389425)" /><path
         style="display:inline;fill:none;fill-opacity:1;stroke:#0a2729;stroke-width:1.5;stroke-linecap:round;stroke-linejoin:bevel;stroke-miterlimit:10;stroke-dasharray:none;stroke-opacity:1;paint-order:fill markers stroke"
         d="m -18.596113,-115.11106 c -17.529185,23.19523 -40.797807,42.019283 -67.142519,54.317542 -18.009818,8.407357 -37.952408,13.833532 -57.712388,11.69336 -23.48124,-2.543216 -44.3663,-15.329682 -65.78994,-25.272746 -22.99922,-10.67432 -47.71348,-18.350656 -73.04915,-19.355042 -25.33568,-1.004387 -51.384,5.025512 -72.05316,19.711945 -15.18822,10.79196 -26.89813,25.707825 -37.87484,40.763059 -13.96769,19.157539 -27.25651,39.1657897 -35.26841,61.479843 -8.36421,23.29528 -10.69323,48.627585 -7.54409,73.177799 2.93569,22.88614 10.70953,45.36359 24.14114,64.12488 12.66666,17.69281 30.05639,31.68454 49.14881,42.12292 19.09241,10.43838 39.89285,17.44831 60.99509,22.75636 39.4022,9.91122 82.02486,13.81798 119.95124,-0.75441 28.34647,-10.89152 51.85066,-31.18905 76.94985,-48.28226 25.715083,-17.51265 53.432185,-31.83256 80.721906,-46.77343 31.6609819,-17.33409 63.258479,-35.734997 98.073341,-45.264625 38.688993,-10.590068 80.612983,-9.566666 118.442423,3.772051 10.64466,3.753323 21.05479,8.512574 29.9864,15.413474 8.93161,6.9009 16.34828,16.08876 19.80468,26.8335 3.00613,9.34501 2.89851,19.58327 0.21651,29.02641 -2.68199,9.44314 -7.87425,18.09418 -14.55031,25.29114 -12.48982,13.46434 -29.78965,21.64618 -47.52785,26.40435 -21.8808,5.8694 -45.34005,6.90843 -67.14252,0.75443 -18.800502,-5.30666 -35.781254,-15.71141 -54.317538,-21.87791 -25.813759,-8.58751 -53.8304296,-8.64277 -80.721906,-4.52646 -29.993372,4.59112 -59.357206,14.35462 -85.248366,30.1764 -18.49113,11.2997 -35.1195,25.63624 -49.03667,42.247 -8.97477,10.7118 -16.82702,22.36351 -23.38672,34.70286"
         id="path216"
         transform="translate(43.259025,19.389425)" /><path
         style="display:inline;fill:none;fill-opacity:1;stroke:#0a2729;stroke-width:0.836001;stroke-linecap:round;stroke-linejoin:bevel;stroke-miterlimit:10;stroke-dasharray:none;stroke-opacity:1;paint-order:fill markers stroke"
         d="m -18.596113,-115.11106 c -17.529185,23.19523 -40.797807,42.019283 -67.142519,54.317542 -18.009818,8.407357 -37.952408,13.833532 -57.712388,11.69336 -23.48124,-2.543216 -44.3663,-15.329682 -65.78994,-25.272746 -22.99922,-10.67432 -47.71348,-18.350656 -73.04915,-19.355042 -25.33568,-1.004387 -51.384,5.025512 -72.05316,19.711945 -15.18822,10.79196 -26.89813,25.707825 -37.87484,40.763059 -13.96769,19.157539 -27.25651,39.1657897 -35.26841,61.479843 -8.36421,23.29528 -10.69323,48.627585 -7.54409,73.177799 2.93569,22.88614 10.70953,45.36359 24.14114,64.12488 12.66666,17.69281 30.05639,31.68454 49.14881,42.12292 19.09241,10.43838 39.89285,17.44831 60.99509,22.75636 39.4022,9.91122 82.02486,13.81798 119.95124,-0.75441 28.34647,-10.89152 51.85066,-31.18905 76.94985,-48.28226 25.715083,-17.51265 53.432185,-31.83256 80.721906,-46.77343 31.6609819,-17.33409 63.258479,-35.734997 98.073341,-45.264625 38.688993,-10.590068 80.612983,-9.566666 118.442423,3.772051 10.64466,3.753323 21.05479,8.512574 29.9864,15.413474 8.93161,6.9009 16.34828,16.08876 19.80468,26.8335 3.00613,9.34501 2.89851,19.58327 0.21651,29.02641 -2.68199,9.44314 -7.87425,18.09418 -14.55031,25.29114 -12.48982,13.46434 -29.78965,21.64618 -47.52785,26.40435 -21.8808,5.8694 -45.34005,6.90843 -67.14252,0.75443 -18.800502,-5.30666 -35.781254,-15.71141 -54.317538,-21.87791 -25.813759,-8.58751 -53.8304296,-8.64277 -80.721906,-4.52646 -29.993372,4.59112 -59.357206,14.35462 -85.248366,30.1764 -18.49113,11.2997 -35.1195,25.63624 -49.03667,42.247 -8.97477,10.7118 -16.82702,22.36351 -23.38672,34.70286"
         id="path220"
         transform="translate(49.079862,19.389425)" /><path
         style="display:inline;fill:none;fill-opacity:1;stroke:#0a2729;stroke-width:0.836001;stroke-linecap:round;stroke-linejoin:bevel;stroke-miterlimit:10;stroke-dasharray:none;stroke-opacity:1;paint-order:fill markers stroke"
         d="m -18.596113,-115.11106 c -17.529185,23.19523 -40.797807,42.019283 -67.142519,54.317542 -18.009818,8.407357 -37.952408,13.833532 -57.712388,11.69336 -23.48124,-2.543216 -44.3663,-15.329682 -65.78994,-25.272746 -22.99922,-10.67432 -47.71348,-18.350656 -73.04915,-19.355042 -25.33568,-1.004387 -51.384,5.025512 -72.05316,19.711945 -15.18822,10.79196 -26.89813,25.707825 -37.87484,40.763059 -13.96769,19.157539 -27.25651,39.1657897 -35.26841,61.479843 -8.36421,23.29528 -10.69323,48.627585 -7.54409,73.177799 2.93569,22.88614 10.70953,45.36359 24.14114,64.12488 12.66666,17.69281 30.05639,31.68454 49.14881,42.12292 19.09241,10.43838 39.89285,17.44831 60.99509,22.75636 39.4022,9.91122 82.02486,13.81798 119.95124,-0.75441 28.34647,-10.89152 51.85066,-31.18905 76.94985,-48.28226 25.715083,-17.51265 53.432185,-31.83256 80.721906,-46.77343 31.6609819,-17.33409 63.258479,-35.734997 98.073341,-45.264625 38.688993,-10.590068 80.612983,-9.566666 118.442423,3.772051 10.64466,3.753323 21.05479,8.512574 29.9864,15.413474 8.93161,6.9009 16.34828,16.08876 19.80468,26.8335 3.00613,9.34501 2.89851,19.58327 0.21651,29.02641 -2.68199,9.44314 -7.87425,18.09418 -14.55031,25.29114 -12.48982,13.46434 -29.78965,21.64618 -47.52785,26.40435 -21.8808,5.8694 -45.34005,6.90843 -67.14252,0.75443 -18.800502,-5.30666 -35.781254,-15.71141 -54.317538,-21.87791 -25.813759,-8.58751 -53.8304296,-8.64277 -80.721906,-4.52646 -29.993372,4.59112 -59.357206,14.35462 -85.248366,30.1764 -18.49113,11.2997 -35.1195,25.63624 -49.03667,42.247 -8.97477,10.7118 -16.82702,22.36351 -23.38672,34.70286"
         id="path225"
         transform="translate(57.546534,19.389425)" /><path
         style="display:inline;fill:none;fill-opacity:1;stroke:#0a2729;stroke-width:0.836001;stroke-linecap:round;stroke-linejoin:bevel;stroke-miterlimit:10;stroke-dasharray:none;stroke-opacity:1;paint-order:fill markers stroke"
         d="m -18.596113,-115.11106 c -17.529185,23.19523 -40.797807,42.019283 -67.142519,54.317542 -18.009818,8.407357 -37.952408,13.833532 -57.712388,11.69336 -23.48124,-2.543216 -44.3663,-15.329682 -65.78994,-25.272746 -22.99922,-10.67432 -47.71348,-18.350656 -73.04915,-19.355042 -25.33568,-1.004387 -51.384,5.025512 -72.05316,19.711945 -15.18822,10.79196 -26.89813,25.707825 -37.87484,40.763059 -13.96769,19.157539 -27.25651,39.1657897 -35.26841,61.479843 -8.36421,23.29528 -10.69323,48.627585 -7.54409,73.177799 2.93569,22.88614 10.70953,45.36359 24.14114,64.12488 12.66666,17.69281 30.05639,31.68454 49.14881,42.12292 19.09241,10.43838 39.89285,17.44831 60.99509,22.75636 39.4022,9.91122 82.02486,13.81798 119.95124,-0.75441 28.34647,-10.89152 51.85066,-31.18905 76.94985,-48.28226 25.715083,-17.51265 53.432185,-31.83256 80.721906,-46.77343 31.6609819,-17.33409 63.258479,-35.734997 98.073341,-45.264625 38.688993,-10.590068 80.612983,-9.566666 118.442423,3.772051 10.64466,3.753323 21.05479,8.512574 29.9864,15.413474 8.93161,6.9009 16.34828,16.08876 19.80468,26.8335 3.00613,9.34501 2.89851,19.58327 0.21651,29.02641 -2.68199,9.44314 -7.87425,18.09418 -14.55031,25.29114 -12.48982,13.46434 -29.78965,21.64618 -47.52785,26.40435 -21.8808,5.8694 -45.34005,6.90843 -67.14252,0.75443 -18.800502,-5.30666 -35.781254,-15.71141 -54.317538,-21.87791 -25.813759,-8.58751 -53.8304296,-8.64277 -80.721906,-4.52646 -29.993372,4.59112 -59.357206,14.35462 -85.248366,30.1764 -18.49113,11.2997 -35.1195,25.63624 -49.03667,42.247 -8.97477,10.7118 -16.82702,22.36351 -23.38672,34.70286"
         id="path229"
         transform="translate(64.425705,19.389425)" /><path
         style="display:inline;fill:none;fill-opacity:1;stroke:#0a2729;stroke-width:0.836001;stroke-linecap:round;stroke-linejoin:bevel;stroke-miterlimit:10;stroke-dasharray:none;stroke-opacity:1;paint-order:fill markers stroke"
         d="m -18.596113,-115.11106 c -17.529185,23.19523 -40.797807,42.019283 -67.142519,54.317542 -18.009818,8.407357 -37.952408,13.833532 -57.712388,11.69336 -23.48124,-2.543216 -44.3663,-15.329682 -65.78994,-25.272746 -22.99922,-10.67432 -47.71348,-18.350656 -73.04915,-19.355042 -25.33568,-1.004387 -51.384,5.025512 -72.05316,19.711945 -15.18822,10.79196 -26.89813,25.707825 -37.87484,40.763059 -13.96769,19.157539 -27.25651,39.1657897 -35.26841,61.479843 -8.36421,23.29528 -10.69323,48.627585 -7.54409,73.177799 2.93569,22.88614 10.70953,45.36359 24.14114,64.12488 12.66666,17.69281 30.05639,31.68454 49.14881,42.12292 19.09241,10.43838 39.89285,17.44831 60.99509,22.75636 39.4022,9.91122 82.02486,13.81798 119.95124,-0.75441 28.34647,-10.89152 51.85066,-31.18905 76.94985,-48.28226 25.715083,-17.51265 53.432185,-31.83256 80.721906,-46.77343 31.6609819,-17.33409 63.258479,-35.734997 98.073341,-45.264625 38.688993,-10.590068 80.612983,-9.566666 118.442423,3.772051 10.64466,3.753323 21.05479,8.512574 29.9864,15.413474 8.93161,6.9009 16.34828,16.08876 19.80468,26.8335 3.00613,9.34501 2.89851,19.58327 0.21651,29.02641 -2.68199,9.44314 -7.87425,18.09418 -14.55031,25.29114 -12.48982,13.46434 -29.78965,21.64618 -47.52785,26.40435 -21.8808,5.8694 -45.34005,6.90843 -67.14252,0.75443 -18.800502,-5.30666 -35.781254,-15.71141 -54.317538,-21.87791 -25.813759,-8.58751 -53.8304296,-8.64277 -80.721906,-4.52646 -29.993372,4.59112 -59.357206,14.35462 -85.248366,30.1764 -18.49113,11.2997 -35.1195,25.63624 -49.03667,42.247 -8.97477,10.7118 -16.82702,22.36351 -23.38672,34.70286"
         id="path230"
         transform="translate(71.834043,19.389425)" /><path
         style="display:inline;fill:none;fill-opacity:1;stroke:#0a2729;stroke-width:0.836001;stroke-linecap:round;stroke-linejoin:bevel;stroke-miterlimit:10;stroke-dasharray:none;stroke-opacity:1;paint-order:fill markers stroke"
         d="m -18.596113,-115.11106 c -17.529185,23.19523 -40.797807,42.019283 -67.142519,54.317542 -18.009818,8.407357 -37.952408,13.833532 -57.712388,11.69336 -23.48124,-2.543216 -44.3663,-15.329682 -65.78994,-25.272746 -22.99922,-10.67432 -47.71348,-18.350656 -73.04915,-19.355042 -25.33568,-1.004387 -51.384,5.025512 -72.05316,19.711945 -15.18822,10.79196 -26.89813,25.707825 -37.87484,40.763059 -13.96769,19.157539 -27.25651,39.1657897 -35.26841,61.479843 -8.36421,23.29528 -10.69323,48.627585 -7.54409,73.177799 2.93569,22.88614 10.70953,45.36359 24.14114,64.12488 12.66666,17.69281 30.05639,31.68454 49.14881,42.12292 19.09241,10.43838 39.89285,17.44831 60.99509,22.75636 39.4022,9.91122 82.02486,13.81798 119.95124,-0.75441 28.34647,-10.89152 51.85066,-31.18905 76.94985,-48.28226 25.715083,-17.51265 53.432185,-31.83256 80.721906,-46.77343 31.6609819,-17.33409 63.258479,-35.734997 98.073341,-45.264625 38.688993,-10.590068 80.612983,-9.566666 118.442423,3.772051 10.64466,3.753323 21.05479,8.512574 29.9864,15.413474 8.93161,6.9009 16.34828,16.08876 19.80468,26.8335 3.00613,9.34501 2.89851,19.58327 0.21651,29.02641 -2.68199,9.44314 -7.87425,18.09418 -14.55031,25.29114 -12.48982,13.46434 -29.78965,21.64618 -47.52785,26.40435 -21.8808,5.8694 -45.34005,6.90843 -67.14252,0.75443 -18.800502,-5.30666 -35.781254,-15.71141 -54.317538,-21.87791 -25.813759,-8.58751 -53.8304296,-8.64277 -80.721906,-4.52646 -29.993372,4.59112 -59.357206,14.35462 -85.248366,30.1764 -18.49113,11.2997 -35.1195,25.63624 -49.03667,42.247 -8.97477,10.7118 -16.82702,22.36351 -23.38672,34.70286"
         id="path246"
         transform="translate(80.300715,19.389425)" /><path
         style="display:inline;fill:none;fill-opacity:1;stroke:#0a2729;stroke-width:0.836001;stroke-linecap:round;stroke-linejoin:bevel;stroke-miterlimit:10;stroke-dasharray:none;stroke-opacity:1;paint-order:fill markers stroke"
         d="m -18.596113,-115.11106 c -17.529185,23.19523 -40.797807,42.019283 -67.142519,54.317542 -18.009818,8.407357 -37.952408,13.833532 -57.712388,11.69336 -23.48124,-2.543216 -44.3663,-15.329682 -65.78994,-25.272746 -22.99922,-10.67432 -47.71348,-18.350656 -73.04915,-19.355042 -25.33568,-1.004387 -51.384,5.025512 -72.05316,19.711945 -15.18822,10.79196 -26.89813,25.707825 -37.87484,40.763059 -13.96769,19.157539 -27.25651,39.1657897 -35.26841,61.479843 -8.36421,23.29528 -10.69323,48.627585 -7.54409,73.177799 2.93569,22.88614 10.70953,45.36359 24.14114,64.12488 12.66666,17.69281 30.05639,31.68454 49.14881,42.12292 19.09241,10.43838 39.89285,17.44831 60.99509,22.75636 39.4022,9.91122 82.02486,13.81798 119.95124,-0.75441 28.34647,-10.89152 51.85066,-31.18905 76.94985,-48.28226 25.715083,-17.51265 53.432185,-31.83256 80.721906,-46.77343 31.6609819,-17.33409 63.258479,-35.734997 98.073341,-45.264625 38.688993,-10.590068 80.612983,-9.566666 118.442423,3.772051 10.64466,3.753323 21.05479,8.512574 29.9864,15.413474 8.93161,6.9009 16.34828,16.08876 19.80468,26.8335 3.00613,9.34501 2.89851,19.58327 0.21651,29.02641 -2.68199,9.44314 -7.87425,18.09418 -14.55031,25.29114 -12.48982,13.46434 -29.78965,21.64618 -47.52785,26.40435 -21.8808,5.8694 -45.34005,6.90843 -67.14252,0.75443 -18.800502,-5.30666 -35.781254,-15.71141 -54.317538,-21.87791 -25.813759,-8.58751 -53.8304296,-8.64277 -80.721906,-4.52646 -29.993372,4.59112 -59.357206,14.35462 -85.248366,30.1764 -18.49113,11.2997 -35.1195,25.63624 -49.03667,42.247 -8.97477,10.7118 -16.82702,22.36351 -23.38672,34.70286"
         id="path249"
         transform="translate(88.23822,19.389425)" /><path
         style="display:inline;fill:none;fill-opacity:1;stroke:#0a2729;stroke-width:0.836001;stroke-linecap:round;stroke-linejoin:bevel;stroke-miterlimit:10;stroke-dasharray:none;stroke-opacity:1;paint-order:fill markers stroke"
         d="m -18.596113,-115.11106 c -17.529185,23.19523 -40.797807,42.019283 -67.142519,54.317542 -18.009818,8.407357 -37.952408,13.833532 -57.712388,11.69336 -23.48124,-2.543216 -44.3663,-15.329682 -65.78994,-25.272746 -22.99922,-10.67432 -47.71348,-18.350656 -73.04915,-19.355042 -25.33568,-1.004387 -51.384,5.025512 -72.05316,19.711945 -15.18822,10.79196 -26.89813,25.707825 -37.87484,40.763059 -13.96769,19.157539 -27.25651,39.1657897 -35.26841,61.479843 -8.36421,23.29528 -10.69323,48.627585 -7.54409,73.177799 2.93569,22.88614 10.70953,45.36359 24.14114,64.12488 12.66666,17.69281 30.05639,31.68454 49.14881,42.12292 19.09241,10.43838 39.89285,17.44831 60.99509,22.75636 39.4022,9.91122 82.02486,13.81798 119.95124,-0.75441 28.34647,-10.89152 51.85066,-31.18905 76.94985,-48.28226 25.715083,-17.51265 53.432185,-31.83256 80.721906,-46.77343 31.6609819,-17.33409 63.258479,-35.734997 98.073341,-45.264625 38.688993,-10.590068 80.612983,-9.566666 118.442423,3.772051 10.64466,3.753323 21.05479,8.512574 29.9864,15.413474 8.93161,6.9009 16.34828,16.08876 19.80468,26.8335 3.00613,9.34501 2.89851,19.58327 0.21651,29.02641 -2.68199,9.44314 -7.87425,18.09418 -14.55031,25.29114 -12.48982,13.46434 -29.78965,21.64618 -47.52785,26.40435 -21.8808,5.8694 -45.34005,6.90843 -67.14252,0.75443 -18.800502,-5.30666 -35.781254,-15.71141 -54.317538,-21.87791 -25.813759,-8.58751 -53.8304296,-8.64277 -80.721906,-4.52646 -29.993372,4.59112 -59.357206,14.35462 -85.248366,30.1764 -18.49113,11.2997 -35.1195,25.63624 -49.03667,42.247 -8.97477,10.7118 -16.82702,22.36351 -23.38672,34.70286"
         id="path253"
         transform="translate(95.646558,19.389425)" /></g></g></svg>
